<svg id="Layer_1" style="color: white" data-name="Layer 1" xmlns="http://www.w3.org/2000/svg" viewBox="0 0 1617.8 721.8"><defs><style>.cls-1{fill:#ffffff;}</style></defs><title>logo</title><path class="cls-1" d="M443.1,490.8l-.6,89.7c-.1,6.2-4,11.2-8.8,11.1s-8.5-5-8.5-11.1v-.2l.6-89.5Z"/><path class="cls-1" d="M444.5,299.4l-.3,32.8c-4.8,1.3-10.5,2.7-17.3,4l.3-36.8Z"/><path class="cls-1" d="M440.5,161.4c2.8,18.7,4.5,52.6,4.5,57.6v.2l-.3,41.5H427.4l.3-41.7c.1-4.4,2.3-38.8,5.4-57.6-11.9-2.6-7-17.3-1.9-27.7a6.5,6.5,0,0,1,11.6.1C447.7,144.2,452.4,159.1,440.5,161.4Z"/><path class="cls-1" d="M410.2,490.8l-.6,89.7c0,6.2-4,11.2-8.7,11.1s-8.6-5-8.6-11.1v-.2l.6-89.5Z"/><path class="cls-1" d="M411.6,299.5l-.3,39.2-3.7.5a37.6,37.6,0,0,0-13.6,4.5l.3-44.2Z"/><path class="cls-1" d="M407.7,161.4c2.7,18.7,4.5,52.6,4.5,57.6v.2l-.3,41.5H394.6l.3-41.7c0-4.4,2.2-38.8,5.3-57.6-11.9-2.6-6.9-17.3-1.8-27.7a6.4,6.4,0,0,1,11.5.1C414.9,144.2,419.6,159.1,407.7,161.4Z"/><path class="cls-1" d="M714.5,280.1V417.3a50.4,50.4,0,0,1-4.1,21,34.1,34.1,0,0,1-11.6,14,53.1,53.1,0,0,1-17.1,7.6,88.1,88.1,0,0,1-21.4,2.4,143.1,143.1,0,0,1-26.6-2.6V431.5h18V280.1Z"/><path class="cls-1" d="M796.4,280V445.8H733.6V280Z"/><path class="cls-1" d="M943.6,346.2l-16.3,99.7H882.9l-15.1-99.7h-1.5l-5.8,99.6H812.6L821.3,280H891l13.2,96h1.3l13.2-96h69.8l8.7,165.8H950.9L945,346.2Z"/><path class="cls-1" d="M1141.5,346.2l-16.3,99.7h-44.4l-15.1-99.7h-1.4l-5.8,99.6h-48l8.8-165.8h69.6l13.2,96h1.4l13.2-96h69.7l8.8,165.8h-46.4l-5.8-99.6Z"/><path class="cls-1" d="M1278.5,346.5h1l19.3-66.5h57.8l-45.9,110.8v55h-62.9v-56L1201.5,280h58.2Z"/><path class="cls-1" d="M392.9,487.8v0Z"/><path class="cls-1" d="M572.5,318.6v57.8a67.4,67.4,0,0,1-1.6,15.4,51.5,51.5,0,0,1-4.4,12.2,35.8,35.8,0,0,1-7.1,9.4,56,56,0,0,1-9.1,6.9,57.6,57.6,0,0,1-11.1,5,93.4,93.4,0,0,1-12.3,3.2,111.8,111.8,0,0,1-13.6,1.7q-7.8.8-14.1.9l-14.5.2H463.3v49.2a7.2,7.2,0,0,1-7.3,7.3H378.4V375.7s1.2-18.9,15.5-28.5a33.6,33.6,0,0,1,14.1-5l3.3-.4c5.6-.8,10.8-1.6,15.6-2.5,6.7-1.3,12.5-2.7,17.3-3.9a138,138,0,0,0,19-6.3v70.4h24.3V296.4H370.3V471.2c0,10.9-1.8,20.4-5.5,28.4a45,45,0,0,1-15.7,18.9,71.9,71.9,0,0,1-23,10.3,117.9,117.9,0,0,1-29,3.3,206,206,0,0,1-35.9-3.5V490.4h24.3V263.8H484.6c7.1,0,13.4.2,18.9.5a171.6,171.6,0,0,1,17.8,1.7,88.9,88.9,0,0,1,16.6,3.8,69.7,69.7,0,0,1,13.9,6.5,40.7,40.7,0,0,1,11.1,9.8,46.9,46.9,0,0,1,6.9,14A60.3,60.3,0,0,1,572.5,318.6Z"/></svg>